<mxfile host="app.diagrams.net" modified="2023-12-11T08:35:48.635Z" agent="Mozilla/5.0 (Windows NT 10.0; Win64; x64) AppleWebKit/537.36 (KHTML, like Gecko) Chrome/119.0.0.0 Safari/537.36" version="22.1.7" etag="zvhpDrk07wsFTkjJZ5BX" type="github">
  <diagram name="Page-1" id="wzGJsfUsOsWwBuzJCbmy">
    <mxGraphModel>
      <root>
        <mxCell id="0" />
        <mxCell id="1" parent="0" />
      </root>
    </mxGraphModel>
  </diagram>
</mxfile>
